<svg xmlns="http://www.w3.org/2000/svg" xmlns:xlink="http://www.w3.org/1999/xlink" width="230" height="83.423" viewBox="0 0 230 83.423"><defs><style>.a{fill:#fff;}.b{fill:url(#a);}.c{fill:#00427e;}.d{fill:#f26631;}</style><linearGradient id="a" x1="0.263" y1="0.243" x2="0.959" y2="0.998" gradientUnits="objectBoundingBox"><stop offset="0" stop-color="#00a7e1"/><stop offset="1" stop-color="#00427e"/></linearGradient></defs><g transform="translate(-14.2 -14.2)"><rect class="a" width="83.189" height="83.189" transform="translate(14.2 14.2)"/><path class="b" d="M50.639,97.272c3.867-12.771,15-33.627,46.633-36.556V97.272ZM97.389,40.8V60.716c-3.046-.234-42.532-3.281-55.42,36.556H28.846C33.3,79.7,48.179,45.249,97.389,40.8Zm0-26.128V40.68c-3.749-.352-63.856-5.273-81.2,56.592H14.317V68.917c10.9-22.848,34.1-49.679,83.072-54.249Zm0-.469v.469c-3.4-.352-50.616-4.452-83.189,30.112V14.2Z" transform="translate(0 0)"/><g transform="translate(120.705 31.189)"><path class="c" d="M107.326,65.256h9.139l12.888-29.175h.117l.351,29.175h9.139L156.419,28.7H148.8L135.915,56.82H135.8l-.117-28.12h-9.959L113.653,56.82h-.117L112.364,28.7H105.1Z" transform="translate(-105.1 -28.7)"/><path class="c" d="M154.95,28.7,147.1,65.256h7.382l3.984-18.512,10.194,18.512h8.67L165.612,45.338,184.125,28.7H173.814L159.285,43.112h-.117L162.332,28.7Z" transform="translate(-97.89 -28.7)"/><path class="c" d="M177.4,65.256h7.03l5.741-28h.117l7.733,28h9.373L215.362,28.7h-6.913l-5.976,27.769h-.117L194.506,28.7H185.25Z" transform="translate(-92.688 -28.7)"/></g><g transform="translate(122.463 81.22)"><path class="d" d="M106.6,87.535V71.6h3.749c3.164,0,5.741,1.172,5.741,4.452,0,3.515-2.695,4.8-5.976,4.8h-1.523v6.679Zm1.875-8.319h1.172c2.461,0,4.335-.469,4.335-3.164,0-2.226-1.758-2.929-4.1-2.929h-1.523v6.093Z" transform="translate(-106.6 -71.366)"/><path class="d" d="M117.4,87.535V71.6h2.695l7.616,13.943V71.6h1.758V87.535h-2.695l-7.616-13.943V87.535Z" transform="translate(-104.746 -71.366)"/><path class="d" d="M131.7,87.535V71.6h8.2v1.523h-6.327v5.39h5.976v1.523h-5.976v5.858h6.561v1.523H131.7Z" transform="translate(-102.291 -71.366)"/><path class="d" d="M160.406,86.983a11.963,11.963,0,0,1-4.452.82c-5.038,0-8.553-2.929-8.553-8.2,0-5.155,3.632-8.2,8.553-8.2a10.974,10.974,0,0,1,4.335.82l-.117,1.758a8.424,8.424,0,0,0-4.1-.937c-3.984,0-6.679,2.343-6.679,6.561,0,4.1,2.461,6.561,6.561,6.561a9.137,9.137,0,0,0,2.578-.351v-5.39h-3.515V78.9h5.39Z" transform="translate(-99.596 -71.4)"/><path class="d" d="M162.3,87.535V71.6h3.867c2.578,0,5.39.7,5.39,3.867a4.145,4.145,0,0,1-3.632,3.984,2.8,2.8,0,0,1,2.109,1.992l2.578,5.976H170.5l-2.226-5.273c-.7-1.64-1.172-2.109-3.046-2.109h-1.172v7.382H162.3Zm1.875-8.9h1.64c1.875,0,3.867-.7,3.867-2.929s-1.992-2.578-3.984-2.578h-1.523Z" transform="translate(-97.038 -71.366)"/><path class="d" d="M173.2,79.6c0-4.335,2.343-8.2,7.147-8.2,4.921,0,7.147,3.632,7.147,8.2,0,4.452-2.343,8.2-7.147,8.2a8.464,8.464,0,0,1-3.163-.586C174.489,85.812,173.2,83,173.2,79.6Zm7.147,6.561c3.749,0,5.155-3.4,5.155-6.679,0-3.164-1.406-6.561-5.155-6.561-3.632,0-5.155,3.4-5.155,6.561a7.9,7.9,0,0,0,1.172,4.452A4.571,4.571,0,0,0,180.347,86.163Z" transform="translate(-95.166 -71.4)"/><path class="d" d="M190.375,81.911c0,2.578,1.406,4.218,3.984,4.218,2.695,0,4.1-1.758,4.1-4.218V71.6h1.875V81.911c0,3.632-2.343,5.858-5.976,5.858s-5.858-2.226-5.858-5.858V71.6h1.875Z" transform="translate(-92.54 -71.366)"/><path class="d" d="M202.4,87.535V71.6h3.749c3.164,0,5.741,1.172,5.741,4.452,0,3.515-2.695,4.8-5.976,4.8h-1.64v6.679Zm1.875-8.319h1.172c2.461,0,4.335-.469,4.335-3.164,0-2.226-1.758-2.929-4.1-2.929h-1.406Z" transform="translate(-90.153 -71.366)"/></g></g></svg>